<?xml version="1.0" encoding="UTF-8"?>
<!DOCTYPE svg PUBLIC "-//W3C//DTD SVG 1.1//EN" "http://www.w3.org/Graphics/SVG/1.1/DTD/svg11.dtd">
<!-- Creator: CorelDRAW -->
<svg xmlns="http://www.w3.org/2000/svg" xml:space="preserve" width="127mm" height="84.5436mm" version="1.1" style="shape-rendering:geometricPrecision; text-rendering:geometricPrecision; image-rendering:optimizeQuality; fill-rule:evenodd; clip-rule:evenodd"
viewBox="0 0 12700 8454.36"
 xmlns:xlink="http://www.w3.org/1999/xlink"
 xmlns:xodm="http://www.corel.com/coreldraw/odm/2003">
 <defs>
  <style type="text/css">
   <![CDATA[
    .fil4 {fill:none}
    .fil3 {fill:#C08973}
    .fil0 {fill:#BADFDA}
    .fil2 {fill:#C08973;fill-rule:nonzero}
    .fil1 {fill:#985F53;fill-rule:nonzero}
   ]]>
  </style>
 </defs>
 <g id="Layer_x0020_1">
  <metadata id="CorelCorpID_0Corel-Layer"/>
  <g id="_2913645369920">
   <path class="fil0" d="M998.27 3295.87c-248.83,4.91 -474.57,108.7 -639.35,273.48 -168.85,168.85 -273.66,401.71 -273.66,657.83 0,256.12 104.81,488.98 273.66,657.83 167.66,167.66 398.44,272.18 652.42,273.65 1.81,0.01 3.61,0.01 5.42,0.01l49.71 0 -7.75 49.13c-44.65,283.33 36.04,552.12 191.54,775.22 172.24,247.12 435.85,438.07 723.03,531.26 269.84,87.57 563.2,98.65 864.53,66.05l0.06 -0.01c153.6,228.79 328.9,441.77 523.05,635.93 764.97,764.96 1821.78,1238.11 2989.07,1238.11 1167.3,0 2224.1,-473.15 2989.07,-1238.11 194.15,-194.16 369.45,-407.14 523.05,-635.93l0.06 0.01c286.29,30.98 565.38,22.52 823.95,-53.5 13.58,-4 27.11,-8.18 40.58,-12.55 287.18,-93.19 550.79,-284.14 723.03,-531.26 155.5,-223.1 236.19,-491.89 191.54,-775.22l-7.75 -49.13 49.71 0c256.11,0 488.99,-104.81 657.84,-273.66 168.85,-168.85 273.66,-401.71 273.66,-657.83 0,-256.12 -104.81,-488.98 -273.66,-657.83 -168.85,-168.85 -401.73,-273.66 -657.84,-273.66l-7.88 0 -41.83 0 7.75 -49.13c44.65,-283.33 -36.04,-552.12 -191.54,-775.22 -172.24,-247.12 -435.85,-438.07 -723.03,-531.26 -269.84,-87.57 -563.2,-98.65 -864.53,-66.05l-0.06 0.01c-153.6,-228.79 -328.9,-441.77 -523.05,-635.93 -764.97,-764.96 -1821.77,-1238.11 -2989.07,-1238.11 -1167.29,0 -2224.1,473.15 -2989.07,1238.11 -194.15,194.16 -369.45,407.14 -523.05,635.93l-0.06 -0.01c-301.33,-32.6 -594.69,-21.52 -864.53,66.05 -287.18,93.19 -550.79,284.14 -723.03,531.26 -155.5,223.1 -236.19,491.89 -191.54,775.22l7.75 49.13 -49.71 0c-6.17,0 -12.34,0.06 -18.49,0.18z"/>
   <path class="fil1" d="M5411.62 5091.27c254.76,112.75 316.13,394.63 120.61,595.87 -137.73,-376.07 -1020.48,-382.5 -1649.88,-329.69 -976.95,82.07 -2156.55,185.53 -2286.42,-1100.4 -66.37,-656.52 328.97,-1363.73 1092.54,-1477.18 626.56,-93.49 1304.48,220.5 979.79,524.5 -534.5,500.97 -100.61,-442.44 -899.87,-326.13 -376.07,54.96 -588.73,652.26 -539.48,1223.87 94.19,1091.82 712.18,1148.91 1613.48,961.23 495.96,-103.47 1176.04,-219.07 1569.23,-72.07zm-272.6 -1453.64c210.51,-201.23 582.31,-200.52 654.39,86.34 70.64,279.04 -214.81,511.67 -447.44,333.27 194.1,-78.49 157,-418.9 -34.98,-421.03 -151.27,-0.72 -171.97,268.32 -171.97,370.36l0 688.63c0,97.06 9.99,169.86 29.98,219.09 5.71,13.56 10.69,25.68 15.69,36.4 -175.55,-22.12 -362.51,-15.7 -525.22,-2.14 11.43,-27.12 19.98,-56.38 26.41,-87.07 12.12,-58.51 17.83,-113.47 17.83,-166.28l0 -791.39c0,-36.39 -2.13,-70.64 -5.71,-101.32 -4.27,-31.42 -9.27,-57.81 -14.98,-80.65 -8.57,-37.82 -18.55,-68.51 -30.69,-90.63 -12.12,-22.12 -22.12,-39.25 -29.97,-51.37 29.97,0 65.66,-0.73 105.61,-2.86 40.69,-2.14 83.5,-5.72 129.88,-12.14 46.39,-5.7 93.48,-14.97 142.02,-27.11 48.52,-12.14 94.9,-29.26 139.15,-51.39l0 151.29zm1662.01 -121.31c78.49,30.69 142.73,86.34 191.96,167.7 49.24,82.07 74.22,186.25 74.22,313.28l0 697.91c0,97.06 9.98,169.84 29.97,219.08 20.68,49.23 37.82,84.21 51.37,104.18l-598.01 0c32.11,-46.38 53.52,-98.46 64.95,-156.99 10.7,-58.52 16.41,-113.46 16.41,-166.27l0 -700.78c0,-38.53 -0.71,-78.49 -1.42,-119.87 -0.72,-41.4 -3.58,-79.94 -7.85,-116.32 -7.85,-54.25 -24.99,-94.21 -51.39,-120.61 -25.68,-26.4 -54.94,-40.67 -87.05,-42.1 -34.27,0 -64.95,14.27 -92.78,43.53 -27.11,29.26 -42.81,72.8 -46.39,131.3 -2.14,32.11 -2.85,67.09 -2.85,104.2l0 119.87 0 700.78c0,97.06 9.99,169.84 29.97,219.08 19.97,49.23 37.12,84.21 51.39,104.18l-598.73 0c30.68,-46.38 51.38,-98.46 63.52,-156.99 12.12,-58.52 18.55,-113.46 18.55,-166.27l0 -791.39c0,-112.76 -18.55,-229.07 -82.07,-324 30.68,0 65.66,-0.7 106.32,-2.84 39.97,-2.14 83.5,-5.71 129.89,-12.14 46.38,-5.7 93.47,-14.99 142.01,-27.11 47.81,-12.14 94.19,-29.26 139.15,-51.38l0 124.16c29.97,-42.81 72.07,-73.49 126.32,-92.05 54.94,-19.27 111.31,-29.26 169.84,-29.26 59.94,0 114.89,9.29 162.7,27.12zm-2726.01 1054.01l0 -616.57c-52.81,220.51 -318.28,290.44 -361.08,508.1 -17.85,91.34 5.71,182.69 68.5,234.06 111.32,91.34 292.58,27.12 292.58,-125.59zm435.31 -489.54c0,137.72 -9.99,335.4 -5.01,509.53 2.87,103.46 5.72,261.89 49.26,368.22 -160.57,17.12 -320.42,42.09 -479.56,72.07l0 -278.31c-37.82,236.21 -338.96,314.71 -538.06,235.5 -235.49,-94.21 -311.85,-358.95 -200.54,-577.32 96.35,-189.83 284.04,-235.5 481.7,-324.69 64.94,-29.26 119.89,-67.08 166.27,-113.47 122.74,-122.74 135.59,-435.3 -54.23,-435.3 -168.41,0 -185.54,296.15 -48.52,368.93 -75.65,265.47 -460.3,189.83 -438.17,-94.19 17.85,-172.7 168.41,-272.61 326.13,-308.29 54.94,-12.13 107.03,-17.84 157.71,-17.84 254.04,0 475.97,86.34 551.62,348.96 20.7,73.5 31.4,155.56 31.4,246.2zm6518.86 -1171.76l0 1791.88c0,112.76 17.84,227.65 82.07,324l-598.73 0c63.52,-92.06 81.36,-214.09 81.36,-324l0 -1375.12c0,-303.29 -368.22,-157 -616.57,-108.48 -295.43,57.81 -842.07,159.85 -1030.45,-144.86 -99.19,-161.28 -34.97,-366.8 226.92,-432.45 18.56,332.54 617.28,366.8 857.05,371.79 250.48,4.99 768.57,12.13 998.35,-102.76zm-2676.05 2109.45l-359.66 -1248.11c-20.7,-70.65 -48.52,-131.3 -84.92,-182.69 -36.4,-51.38 -76.36,-84.91 -120.61,-101.33l710.05 0c-48.52,16.42 -75.64,52.08 -81.36,107.04 -6.42,55.66 0,114.9 17.86,176.98l259.75 961.22c16.41,-34.24 34.25,-69.93 54.23,-107.02 20.69,-37.82 40.68,-78.51 60.66,-122.76 28.54,-62.08 50.66,-134.15 67.8,-214.79 17.12,-79.92 22.82,-161.28 17.12,-242.62 -6.42,-82.07 -28.55,-158.43 -67.08,-229.8 -37.82,-72.07 -98.48,-128.44 -181.26,-171.26 22.12,-64.22 62.08,-114.18 119.89,-149.14 57.08,-35.68 116.32,-51.38 176.26,-47.11 50.67,4.29 97.77,22.13 142.02,54.24 44.94,32.12 72.78,82.07 84.91,148.43 6.43,39.96 7.14,81.36 2.85,123.46 -3.56,42.82 -10.7,84.21 -20.69,124.16 -16.42,60.66 -38.54,120.61 -67.07,179.84 -27.84,59.23 -52.81,114.18 -74.94,164.84l-359.66 776.42 -296.15 0zm-621.56 -323.27c0,97.06 10.7,169.84 30.69,219.09 19.98,49.23 37.1,84.2 51.38,104.17l-598.74 0c30.69,-46.38 51.39,-98.48 63.53,-156.99 12.12,-58.51 18.54,-113.46 18.54,-166.27l0 -791.41c0,-36.38 -2.13,-70.64 -6.42,-101.33 -4.27,-31.39 -9.27,-57.79 -14.99,-80.63 -7.84,-37.82 -17.83,-68.51 -29.97,-90.63 -12.12,-22.12 -22.11,-39.24 -30.69,-51.38 30.69,0 65.66,-0.71 105.63,-2.85 40.68,-2.15 84.2,-5.71 130.58,-12.14 45.68,-5.71 93.5,-14.99 142.02,-27.11 47.81,-12.14 94.19,-29.26 138.44,-51.38l0 1208.86zm44.24 -1529.28c0,72.8 -24.97,134.17 -75.64,184.83 -50.68,49.96 -112.05,74.93 -184.11,74.93 -72.78,0 -134.88,-24.97 -186.25,-74.93 -51.38,-50.66 -77.07,-112.03 -77.07,-184.83 0,-72.06 25.69,-134.15 77.07,-185.53 51.37,-51.39 113.47,-77.07 186.25,-77.07 72.06,0 133.43,25.68 184.11,77.07 50.67,51.38 75.64,113.47 75.64,185.53zm2098.03 1404.4l0 -616.57c-52.81,220.51 -318.99,290.44 -361.08,508.1 -17.85,91.34 4.98,182.69 67.79,234.06 112.03,91.34 293.29,27.12 293.29,-125.59zm435.31 -489.54c0,137.72 -9.99,335.4 -5,509.53 4.28,151.27 7.13,326.11 137.72,427.45l-568.03 0 0 -265.47c-8.56,49.95 -25.68,92.06 -52.81,124.88 -113.46,138.44 -323.26,175.55 -485.25,110.62 -235.49,-94.21 -311.85,-358.95 -201.25,-577.32 96.34,-189.83 284.02,-235.5 482.4,-324.69 64.24,-29.26 119.9,-67.08 166.28,-113.47 122.74,-122.74 135.59,-435.3 -54.95,-435.3 -167.7,0 -184.82,296.15 -47.8,368.93 -76.36,265.47 -460.28,189.83 -438.17,-94.19 17.85,-172.7 167.7,-272.61 326.12,-308.29 54.24,-12.13 107.05,-17.84 157,-17.84 254.76,0 475.98,86.34 551.63,348.96 21.41,73.5 32.11,155.56 32.11,246.2z"/>
   <g>
    <path class="fil2" d="M6041.06 5240.26l0 13.78c0,4.51 0.08,8.2 0.27,11.08 0.19,2.88 0.36,5.32 0.54,7.3 0.17,1.99 0.28,3.7 0.28,5.14l0 1.61c-5.41,-5.4 -11.73,-10.27 -18.93,-14.59 -13.68,-7.93 -33.5,-11.9 -59.43,-11.9l-62.69 0 0 127.54 49.73 0c27.72,0 47.53,-3.42 59.43,-10.26 8.64,-5.05 15.13,-9.73 19.45,-14.05l0 1.09c0,0.72 -0.09,1.69 -0.26,2.96 -0.2,1.27 -0.27,2.9 -0.27,4.87 0,1.98 -0.1,4.32 -0.27,7.02 -0.2,2.7 -0.37,5.58 -0.54,8.64 -0.19,3.08 -0.29,6.68 -0.29,10.82l0 12.69c0,5.78 0.1,11.27 0.29,16.49 0.17,5.22 0.34,9.64 0.54,13.23 0.17,3.61 0.27,6.76 0.27,9.46l0 6.21 0.53 2.17c-4.68,-4.69 -11.17,-9.53 -19.45,-14.59 -11.9,-6.84 -31.71,-10.26 -59.43,-10.26l-49.73 0c0,60.88 0.81,99.16 2.42,114.83 1.63,15.67 5.49,29.09 11.63,40.26l5.4 9.73c-11.17,-0.73 -30.62,-1.09 -58.36,-1.09l-57.83 1.09 4.86 -9.19c5.78,-11.16 9.46,-25.94 11.09,-44.31 1.62,-18.39 2.43,-65.74 2.43,-142.13 0,-74.93 -0.72,-120.95 -2.16,-138.08 -1.45,-17.1 -5.24,-31.43 -11.36,-42.96l-4.86 -9.18c7.93,0.35 21.62,0.54 41.08,0.54l196.16 0c-0.37,6.85 -0.54,18.2 -0.54,34.04z"/>
    <path class="fil2" d="M6171.03 5591.52c-10.82,-0.72 -29.73,-1.07 -56.76,-1.07l-56.73 1.07 4.86 -9.19c5.41,-10.06 9,-22.69 10.81,-37.82 1.8,-15.13 2.71,-48.46 2.71,-99.97l0 -124.85c0,-45.73 -0.91,-76.45 -2.71,-92.13 -1.81,-15.67 -5.4,-28.72 -10.81,-39.18l-4.86 -9.18 96.74 -13.52c-1.09,37.84 -1.63,74.22 -1.63,109.17l0 169.69c0,51.15 0.9,84.38 2.71,99.7 1.79,15.32 5.39,28.03 10.81,38.09l4.86 9.19z"/>
    <path class="fil2" d="M6395.45 5502.9l0 -166.45c-10.46,-10.09 -25.39,-15.12 -44.85,-15.12 -49.72,0 -74.58,38.73 -74.58,116.18 0,72.41 20.35,108.62 61.07,108.62 13.33,0 24.86,-3.59 34.59,-10.81 9.73,-7.2 16.02,-14.42 18.92,-21.62l4.85 -10.8zm89.17 69.71l4.87 9.19 -93.5 13.5 3.25 -86.45c-10.81,58.72 -41.97,88.08 -93.5,88.08 -14.76,0 -28.18,-2.34 -40.24,-7.03 -12.09,-4.66 -21.89,-10.54 -29.47,-17.56 -7.56,-7.03 -14.04,-15.76 -19.45,-26.21 -5.39,-10.45 -9.44,-20.08 -12.15,-28.91 -2.71,-8.83 -4.87,-18.84 -6.49,-29.99 -1.63,-11.16 -2.53,-19.74 -2.7,-25.67 -0.2,-5.95 -0.27,-12.33 -0.27,-19.18 0,-30.99 3.86,-57.84 11.61,-80.53 7.76,-22.68 18.29,-39.98 31.62,-51.88 13.32,-11.89 27.47,-20.53 42.43,-25.94 14.94,-5.39 30.87,-8.1 47.82,-8.1 16.93,0 31.88,2.34 44.85,7.03 12.98,4.68 21.62,9.36 25.94,14.03l7.03 7.05 70.78 -28.65c-3.24,24.5 -4.86,75.47 -4.86,152.94l0 19.98c0,43.97 0.9,73.49 2.71,88.63 1.8,15.14 5.03,27.02 9.72,35.67z"/>
    <path class="fil2" d="M6815.69 5281.88c-6.13,5.77 -12.17,14.97 -18.11,27.58 -5.95,12.61 -10.7,24.59 -14.26,35.92 -3.58,11.33 -10,31.76 -19.29,61.28l-58.17 184.87c-12.62,-0.73 -30.09,-1.1 -52.42,-1.1l-52.42 1.1 -56.18 -184.94c-9.74,-31.99 -16.41,-53.94 -20.01,-65.81 -3.62,-11.89 -7.94,-23.33 -12.97,-34.33 -5.07,-10.98 -10.64,-19.16 -16.76,-24.57 11.52,0.71 31.77,1.07 60.75,1.07l65.14 -1.07c-11.03,7.51 -16.55,18.27 -16.55,32.25 0,11.82 6.61,40.84 19.85,87.05l32.21 117.88c2.96,12.47 5.25,23.66 6.92,33.55 0,-4.65 2.31,-15.4 6.93,-32.2l32.6 -115.23c14.02,-48.66 21.03,-78.95 21.03,-90.86 0,-14.42 -5.23,-25.23 -15.64,-32.44 11.85,0.72 30.01,1.07 54.44,1.07l52.91 -1.07z"/>
    <path class="fil2" d="M7018.75 5435.35c0,-38.91 -5.22,-67.46 -15.67,-85.66 -10.45,-18.18 -28.1,-27.3 -52.96,-27.3 -23.77,0 -40.97,9.39 -51.61,28.11 -10.62,18.73 -15.94,47.92 -15.94,87.54 0,38.91 5.21,67.48 15.67,85.66 10.45,18.19 28.11,27.29 52.97,27.29 23.77,0 40.97,-9.36 51.6,-28.09 10.63,-18.74 15.94,-47.92 15.94,-87.55zm82.15 -3.24c0,16.93 -1.54,33.06 -4.6,48.36 -3.06,15.32 -8.47,30.26 -16.21,44.85 -7.75,14.6 -17.29,27.12 -28.64,37.55 -11.35,10.46 -25.86,18.93 -43.51,25.42 -17.64,6.47 -37.64,9.71 -59.97,9.71 -47.92,0 -84.5,-14.03 -109.7,-42.14 -25.23,-28.1 -37.84,-66.27 -37.84,-114.57 0,-21.26 2.7,-41.25 8.11,-59.98 5.4,-18.72 13.69,-36.21 24.85,-52.42 11.18,-16.22 27.03,-29.08 47.56,-38.64 20.54,-9.54 44.67,-14.32 72.41,-14.32 47.92,0 84.48,13.95 109.7,41.89 25.23,27.91 37.84,66.02 37.84,114.29z"/>
    <path class="fil2" d="M7329.65 5371.03c-14.41,-21.61 -34.05,-32.41 -58.9,-32.41 -12.62,0 -23.15,2.24 -31.62,6.75 -8.46,4.51 -13.78,8.92 -15.93,13.24l-3.25 6.49 0 79.44c0,37.46 0.72,65.83 2.16,85.11 1.44,19.28 2.88,31.16 4.33,35.67 1.43,4.5 4.13,10 8.1,16.47l5.4 9.74c-11.88,-0.73 -31.16,-1.1 -57.82,-1.1l-57.28 1.1 4.86 -9.2c3.6,-6.83 6.13,-12.51 7.57,-17.01 1.44,-4.51 2.78,-16.39 4.05,-35.67 1.26,-19.28 1.9,-47.65 1.9,-85.11l0 -19.46c0,-43.24 -1,-72.5 -2.98,-87.82 -1.98,-15.3 -5.5,-27.45 -10.54,-36.48l-4.86 -9.17 93.5 -13.52 -2.17 83.23c2.88,-18.01 7.47,-33.16 13.77,-45.4 6.31,-12.26 13.52,-20.99 21.62,-26.21 8.12,-5.21 15.32,-8.83 21.62,-10.81 6.31,-1.98 12.7,-2.98 19.19,-2.98 8.28,0 15.57,0.83 21.89,2.44 6.3,1.61 10.35,3.15 12.15,4.61l3.24 2.69c-0.72,8.64 -1.09,22.34 -1.09,41.06l1.09 44.31z"/>
    <path class="fil2" d="M7549.86 5501.28c0,27.02 -9.28,49.36 -27.84,67.01 -18.56,17.64 -47.65,26.47 -87.26,26.47 -17.66,0 -34.05,-1.44 -49.18,-4.32 -15.13,-2.88 -25.94,-5.76 -32.43,-8.64l-9.18 -4.33c0.72,-6.84 1.08,-19.09 1.08,-36.73l-1.08 -43.26c11.52,18.03 23.77,31.18 36.75,39.46 12.96,8.29 28.63,12.44 47.02,12.44 33.85,0 50.8,-12.06 50.8,-36.21 0,-9.01 -2.27,-16.4 -6.76,-22.16 -4.51,-5.76 -11.98,-11.36 -22.44,-16.76l-44.31 -24.32c-18.72,-9.36 -33.41,-20.35 -44.04,-32.95 -10.63,-12.61 -15.94,-30.27 -15.94,-52.97 0,-28.81 9.46,-50.61 28.37,-65.39 18.91,-14.76 45.47,-22.15 79.7,-22.15 18.02,0 34.23,1.44 48.65,4.32 14.4,2.89 24.32,5.77 29.72,8.65l8.1 3.77c-0.73,7.22 -1.08,20 -1.08,38.38l1.08 41.06c-11.54,-17.28 -23.15,-30.25 -34.85,-38.89 -11.71,-8.66 -26.39,-12.98 -44.04,-12.98 -31,0 -46.48,10.82 -46.48,32.49 0,9.38 2.79,16.87 8.36,22.46 5.57,5.59 15.36,12.02 29.39,19.22l37.12 19.75c20.26,10.76 35.45,22.68 45.58,35.78 10.13,13.08 15.19,30.01 15.19,50.8z"/>
    <path class="fil2" d="M7898.42 5435.35c0,-38.91 -5.22,-67.46 -15.66,-85.66 -10.47,-18.18 -28.11,-27.3 -52.97,-27.3 -23.77,0 -40.97,9.39 -51.61,28.11 -10.62,18.73 -15.93,47.92 -15.93,87.54 0,38.91 5.2,67.48 15.66,85.66 10.45,18.19 28.11,27.29 52.97,27.29 23.77,0 40.97,-9.36 51.61,-28.09 10.61,-18.74 15.93,-47.92 15.93,-87.55zm82.15 -3.24c0,16.93 -1.53,33.06 -4.6,48.36 -3.06,15.32 -8.47,30.26 -16.21,44.85 -7.76,14.6 -17.3,27.12 -28.64,37.55 -11.35,10.46 -25.86,18.93 -43.51,25.42 -17.64,6.47 -37.65,9.71 -59.97,9.71 -47.92,0 -84.49,-14.03 -109.71,-42.14 -25.22,-28.1 -37.83,-66.27 -37.83,-114.57 0,-21.26 2.7,-41.25 8.12,-59.98 5.39,-18.72 13.68,-36.21 24.84,-52.42 11.17,-16.22 27.03,-29.08 47.56,-38.64 20.54,-9.54 44.67,-14.32 72.41,-14.32 47.92,0 84.48,13.95 109.7,41.89 25.23,27.91 37.84,66.02 37.84,114.29z"/>
    <path class="fil2" d="M8187.81 5235.94c-13.69,-18.01 -28.65,-27.04 -44.85,-27.04 -15.86,0 -27.21,4.88 -34.06,14.61 -5.76,8.29 -8.64,24.13 -8.64,47.56l0 21.06 16.22 0c12.23,0 22.6,-0.43 31.07,-1.34 8.46,-0.91 13.96,-1.89 16.49,-2.98l3.76 -1.61c-0.35,5.41 -0.52,14.78 -0.52,28.09l0.52 27.56c-7.55,-3.95 -24.67,-5.95 -51.32,-5.95l-15.14 0 0 106.47c0,50.44 0.9,83.58 2.7,99.43 1.8,15.86 5.76,29.19 11.89,39.99l5.41 9.74c-10.81,-0.73 -30.08,-1.1 -57.82,-1.1l-57.29 1.1 4.87 -9.2c5.76,-9.73 9.45,-22.06 11.08,-37.01 1.61,-14.96 2.42,-48.54 2.42,-100.78l0 -111.33 -33.5 0c20.89,-16.93 31.89,-36.76 32.96,-59.44l0.54 -8.11c2.17,-31.34 11.44,-55.84 27.84,-73.5 16.39,-17.64 45.65,-26.47 87.81,-26.47 10.08,0 19.1,0.36 27.03,1.07 7.91,0.73 13.33,1.46 16.21,2.17l4.32 1.08c-0.73,10.09 -1.08,20.36 -1.08,30.79l1.08 35.14z"/>
    <path class="fil2" d="M8564.47 5579.1c-23.78,10.46 -57.83,15.66 -102.14,15.66 -29.54,0 -55.75,-3.68 -78.63,-11.07 -22.89,-7.38 -41.34,-17.11 -55.39,-29.18 -14.06,-12.08 -25.59,-26.56 -34.6,-43.51 -9,-16.93 -15.2,-34.04 -18.62,-51.33 -3.44,-17.3 -5.15,-35.85 -5.15,-55.66 0,-65.93 17.03,-116 51.07,-150.23 34.04,-34.23 82.42,-51.34 145.11,-51.34 20.88,0 39.53,1.35 55.92,4.05 16.4,2.69 27.65,5.32 33.77,7.83l8.66 3.79c-0.73,7.93 -1.08,21.6 -1.08,41.06l1.08 43.24c-12.98,-18.72 -25.86,-32.24 -38.65,-40.53 -12.78,-8.29 -30.89,-12.44 -54.31,-12.44 -34.58,0 -62.87,12.79 -84.84,38.38 -21.98,25.59 -32.96,63.41 -32.96,113.48 0,97.28 38.55,145.91 115.65,145.91 23.4,0 41.87,-4.32 55.39,-12.98 13.51,-8.64 26.74,-22.33 39.72,-41.06 -0.73,11.53 -1.08,27.22 -1.08,47.01l1.08 38.92z"/>
    <path class="fil2" d="M8771.17 5367.79c0,-34.22 -15.67,-51.33 -47.02,-51.33 -20.89,0 -36.13,8.02 -45.65,24.04 -9.56,16.04 -14.33,41.17 -14.33,75.39 8.28,2.16 23.6,3.24 45.93,3.24 40.72,0 61.07,-17.1 61.07,-51.34zm76.2 -0.53c0,8.64 -0.63,16.66 -1.9,24.05 -1.27,7.37 -4.4,15.59 -9.45,24.58 -5.05,9 -11.8,16.58 -20.27,22.71 -8.47,6.12 -20.62,11.33 -36.46,15.67 -15.88,4.32 -34.59,6.48 -56.21,6.48 -10.81,0 -21.01,-0.36 -30.55,-1.09 -9.54,-0.71 -16.3,-1.42 -20.26,-2.15l-6.48 -1.08c0,10.08 1.09,19.72 3.24,28.9 2.17,9.2 6.03,18.83 11.62,28.93 5.58,10.06 14.51,18.18 26.74,24.3 12.25,6.13 27.03,9.18 44.33,9.18 13.32,0 25.57,-1.15 36.74,-3.49 11.16,-2.36 19.8,-4.95 25.94,-7.85 6.13,-2.88 11.53,-6.21 16.21,-9.99 4.68,-3.78 7.75,-6.57 9.19,-8.39 1.43,-1.8 2.52,-3.41 3.25,-4.85 0,23.77 -9.29,43.77 -27.84,59.98 -18.55,16.2 -47.29,24.32 -86.18,24.32 -50.8,0 -87.47,-14.06 -109.99,-42.16 -22.51,-28.09 -33.77,-66.09 -33.77,-114.02 0,-56.2 12.7,-97.8 38.11,-124.83 25.38,-27.02 59.17,-40.53 101.33,-40.53 15.84,0 30.7,1.54 44.58,4.59 13.86,3.07 26.82,7.93 38.89,14.59 12.08,6.68 21.62,16.13 28.65,28.37 7.03,12.25 10.54,26.84 10.54,43.78z"/>
    <path class="fil2" d="M8983.44 5591.52c-10.81,-0.72 -29.72,-1.07 -56.75,-1.07l-56.73 1.07 4.85 -9.19c5.42,-10.06 9.01,-22.69 10.81,-37.82 1.81,-15.13 2.71,-48.46 2.71,-99.97l0 -124.85c0,-45.73 -0.9,-76.45 -2.71,-92.13 -1.8,-15.67 -5.39,-28.72 -10.81,-39.18l-4.85 -9.18 96.74 -13.52c-1.1,37.84 -1.63,74.22 -1.63,109.17l0 169.69c0,51.15 0.9,84.38 2.7,99.7 1.79,15.32 5.4,28.03 10.81,38.09l4.86 9.19z"/>
    <path class="fil2" d="M9193.01 5367.79c0,-34.22 -15.67,-51.33 -47.02,-51.33 -20.89,0 -36.13,8.02 -45.66,24.04 -9.56,16.04 -14.32,41.17 -14.32,75.39 8.28,2.16 23.6,3.24 45.93,3.24 40.71,0 61.07,-17.1 61.07,-51.34zm76.19 -0.53c0,8.64 -0.63,16.66 -1.89,24.05 -1.27,7.37 -4.42,15.59 -9.45,24.58 -5.05,9 -11.81,16.58 -20.28,22.71 -8.46,6.12 -20.61,11.33 -36.46,15.67 -15.87,4.32 -34.59,6.48 -56.21,6.48 -10.81,0 -21,-0.36 -30.54,-1.09 -9.54,-0.71 -16.3,-1.42 -20.25,-2.15l-6.5 -1.08c0,10.08 1.08,19.72 3.25,28.9 2.17,9.2 6.03,18.83 11.62,28.93 5.58,10.06 14.51,18.18 26.74,24.3 12.25,6.13 27.03,9.18 44.33,9.18 13.32,0 25.57,-1.15 36.74,-3.49 11.16,-2.36 19.8,-4.95 25.94,-7.85 6.13,-2.88 11.52,-6.21 16.21,-9.99 4.68,-3.78 7.75,-6.57 9.19,-8.39 1.42,-1.8 2.51,-3.41 3.25,-4.85 0,23.77 -9.3,43.77 -27.84,59.98 -18.57,16.2 -47.29,24.32 -86.19,24.32 -50.8,0 -87.46,-14.06 -109.98,-42.16 -22.52,-28.09 -33.77,-66.09 -33.77,-114.02 0,-56.2 12.71,-97.8 38.1,-124.83 25.39,-27.02 59.17,-40.53 101.33,-40.53 15.84,0 30.7,1.54 44.57,4.59 13.87,3.07 26.83,7.93 38.91,14.59 12.08,6.68 21.62,16.13 28.64,28.37 7.03,12.25 10.54,26.84 10.54,43.78z"/>
    <path class="fil2" d="M9507.47 5434.81c0,-72.42 -20.72,-108.62 -62.15,-108.62 -13.69,0 -25.49,3.6 -35.4,10.8 -9.91,7.22 -16.3,14.42 -19.18,21.62l-4.86 10.81 0 166.97c10.45,10.1 25.75,15.15 45.93,15.15 50.43,0 75.66,-38.92 75.66,-116.73zm81.05 -4.86c0,30.97 -3.87,57.83 -11.61,80.51 -7.76,22.7 -18.37,40.18 -31.89,52.42 -13.5,12.25 -27.74,21.08 -42.68,26.48 -14.95,5.39 -31.08,8.12 -48.36,8.12 -16.95,0 -32.08,-2.36 -45.4,-7.05 -13.34,-4.66 -22.35,-9.36 -27.02,-14.05l-7.03 -7.01 -70.26 28.63c3.24,-21.96 4.88,-71.69 4.88,-149.14l0 -136.17c0,-43.24 -1,-72.51 -2.98,-87.83 -1.98,-15.31 -5.51,-27.48 -10.54,-36.48l-4.86 -9.18 96.73 -13.51c-1.08,37.84 -1.62,74.22 -1.62,109.16l0 17.28 -3.78 71.34c10.44,-58.36 41.95,-87.55 94.57,-87.55 14.77,0 28.17,2.27 40.26,6.76 12.06,4.51 21.89,10.2 29.45,17.03 7.57,6.84 14.13,15.4 19.72,25.67 5.58,10.26 9.81,19.81 12.69,28.63 2.9,8.84 5.05,18.73 6.51,29.72 1.42,10.99 2.32,19.65 2.69,25.95 0.35,6.3 0.53,13.07 0.53,20.27z"/>
    <path class="fil2" d="M9820.2 5371.03c-14.42,-21.61 -34.06,-32.41 -58.9,-32.41 -12.63,0 -23.15,2.24 -31.62,6.75 -8.47,4.51 -13.78,8.92 -15.94,13.24l-3.24 6.49 0 79.44c0,37.46 0.71,65.83 2.15,85.11 1.44,19.28 2.88,31.16 4.34,35.67 1.42,4.5 4.13,10 8.1,16.47l5.4 9.74c-11.89,-0.73 -31.16,-1.1 -57.83,-1.1l-57.27 1.1 4.86 -9.2c3.61,-6.83 6.12,-12.51 7.56,-17.01 1.44,-4.51 2.79,-16.39 4.05,-35.67 1.27,-19.28 1.9,-47.65 1.9,-85.11l0 -19.46c0,-43.24 -1,-72.5 -2.97,-87.82 -1.98,-15.3 -5.51,-27.45 -10.54,-36.48l-4.86 -9.17 93.5 -13.52 -2.17 83.23c2.88,-18.01 7.47,-33.16 13.77,-45.4 6.31,-12.26 13.51,-20.99 21.61,-26.21 8.12,-5.21 15.32,-8.83 21.62,-10.81 6.31,-1.98 12.71,-2.98 19.2,-2.98 8.27,0 15.57,0.83 21.88,2.44 6.3,1.61 10.35,3.15 12.16,4.61l3.24 2.69c-0.73,8.64 -1.08,22.34 -1.08,41.06l1.08 44.31z"/>
    <path class="fil2" d="M10030.63 5502.9l0 -166.45c-10.46,-10.09 -25.4,-15.12 -44.85,-15.12 -49.72,0 -74.58,38.73 -74.58,116.18 0,72.41 20.35,108.62 61.07,108.62 13.32,0 24.86,-3.59 34.59,-10.81 9.72,-7.2 16.02,-14.42 18.91,-21.62l4.86 -10.8zm89.16 69.71l4.88 9.19 -93.5 13.5 3.24 -86.45c-10.81,58.72 -41.97,88.08 -93.49,88.08 -14.77,0 -28.19,-2.34 -40.25,-7.03 -12.09,-4.66 -21.88,-10.54 -29.46,-17.56 -7.57,-7.03 -14.04,-15.76 -19.45,-26.21 -5.4,-10.45 -9.45,-20.08 -12.15,-28.91 -2.71,-8.83 -4.88,-18.84 -6.5,-29.99 -1.62,-11.16 -2.53,-19.74 -2.7,-25.67 -0.19,-5.95 -0.27,-12.33 -0.27,-19.18 0,-30.99 3.86,-57.84 11.61,-80.53 7.76,-22.68 18.3,-39.98 31.63,-51.88 13.32,-11.89 27.47,-20.53 42.42,-25.94 14.94,-5.39 30.88,-8.1 47.83,-8.1 16.93,0 31.87,2.34 44.85,7.03 12.97,4.68 21.61,9.36 25.93,14.03l7.03 7.05 70.79 -28.65c-3.25,24.5 -4.86,75.47 -4.86,152.94l0 19.98c0,43.97 0.9,73.49 2.7,88.63 1.81,15.14 5.04,27.02 9.72,35.67z"/>
    <path class="fil2" d="M10335.26 5535.87c0,5.77 -1.17,11.71 -3.51,17.83 -2.35,6.13 -6.22,12.61 -11.62,19.45 -5.41,6.85 -13.88,12.42 -25.4,16.74 -11.54,4.32 -25.4,6.49 -41.62,6.49 -32.77,0 -56.02,-10.06 -69.71,-30.25 -9.37,-13.7 -14.04,-39.46 -14.04,-77.3l1.62 -160.48 -35.13 0c0.73,-0.35 2.78,-2.25 6.22,-5.68 3.42,-3.42 8.64,-9.28 15.66,-17.57 7.03,-8.28 13.96,-17.45 20.81,-27.55 6.84,-9.73 13.23,-19.64 19.18,-29.72 5.95,-10.09 10.18,-17.83 12.71,-23.23l4.32 -7.57 32.43 0 0 66.99 32.43 0c12.95,0 23.84,-0.53 32.69,-1.6 8.81,-1.09 14.49,-1.97 17.01,-2.72l3.25 -1.61c-0.37,5.4 -0.54,14.78 -0.54,28.1l0.54 27.56c-5.42,-3.6 -23.06,-5.4 -52.95,-5.4l-32.43 0 0 161.04c0,20.17 2.15,34.58 6.49,43.23 6.47,12.61 18.91,18.91 37.28,18.91 9,0 17.2,-1.36 24.59,-4.05 7.38,-2.7 12.5,-5.31 15.4,-7.83l4.32 -3.78z"/>
    <path class="fil2" d="M10454.91 5205.13c0,25.23 -15.86,37.84 -47.56,37.84 -31.71,0 -47.55,-11.9 -47.55,-35.67 0,-25.21 15.84,-37.84 47.55,-37.84 31.7,0 47.56,11.9 47.56,35.67zm9.17 386.39c-10.8,-0.71 -29.53,-1.08 -56.19,-1.08l-57.29 1.08 4.88 -9.18c5.39,-10.08 8.98,-22.61 10.79,-37.55 1.8,-14.96 2.7,-48.38 2.7,-100.25l0 -19.45c0,-43.24 -0.97,-72.52 -2.97,-87.83 -1.98,-15.31 -5.49,-27.46 -10.52,-36.48l-4.88 -9.18 99.99 -13.5c-3.25,20.16 -4.88,68.98 -4.88,146.43l0 20.01c0,49.01 0.81,81.42 2.44,97.26 1.61,15.86 5.32,29.37 11.08,40.54l4.85 9.18z"/>
    <path class="fil2" d="M10705.26 5435.35c0,-38.91 -5.22,-67.46 -15.66,-85.66 -10.46,-18.18 -28.11,-27.3 -52.97,-27.3 -23.77,0 -40.97,9.39 -51.61,28.11 -10.61,18.73 -15.93,47.92 -15.93,87.54 0,38.91 5.2,67.48 15.66,85.66 10.45,18.19 28.11,27.29 52.97,27.29 23.77,0 40.97,-9.36 51.61,-28.09 10.62,-18.74 15.93,-47.92 15.93,-87.55zm82.15 -3.24c0,16.93 -1.53,33.06 -4.6,48.36 -3.05,15.32 -8.47,30.26 -16.21,44.85 -7.75,14.6 -17.29,27.12 -28.64,37.55 -11.35,10.46 -25.86,18.93 -43.5,25.42 -17.65,6.47 -37.65,9.71 -59.98,9.71 -47.92,0 -84.49,-14.03 -109.7,-42.14 -25.23,-28.1 -37.84,-66.27 -37.84,-114.57 0,-21.26 2.7,-41.25 8.12,-59.98 5.4,-18.72 13.67,-36.21 24.84,-52.42 11.18,-16.22 27.03,-29.08 47.56,-38.64 20.54,-9.54 44.67,-14.32 72.42,-14.32 47.92,0 84.47,13.95 109.7,41.89 25.22,27.91 37.83,66.02 37.83,114.29z"/>
    <path class="fil2" d="M11106.41 5582.34l4.85 9.19c-10.79,-0.73 -29.71,-1.09 -56.73,-1.09l-56.75 1.09 4.88 -9.19c3.95,-7.2 6.56,-12.79 7.83,-16.75 1.25,-3.97 2.61,-15.68 4.05,-35.13 1.44,-19.46 2.15,-47.73 2.15,-84.85 0,-54.76 -3.05,-87.55 -9.18,-98.34 -7.56,-13.69 -21.8,-20.54 -42.69,-20.54 -13.69,0 -25.4,3.6 -35.12,10.81 -9.73,7.21 -16.04,14.41 -18.91,21.62l-4.33 10.8 0 75.11c0,37.47 0.63,65.77 1.89,84.85 1.26,19.11 2.61,30.89 4.05,35.39 1.44,4.51 3.96,10.19 7.57,17.03l4.86 9.19c-10.81,-0.73 -29.53,-1.09 -56.2,-1.09l-57.28 1.09 4.87 -9.19c3.59,-6.84 6.11,-12.52 7.57,-17.03 1.42,-4.5 2.78,-16.38 4.05,-35.65 1.24,-19.28 1.88,-47.65 1.88,-85.12l0 -19.46c0,-43.24 -0.98,-72.49 -2.98,-87.81 -1.98,-15.31 -5.49,-27.46 -10.52,-36.48l-4.87 -9.18 94.57 -13.52 -3.25 85.92c10.45,-58.71 43.05,-88.08 97.82,-88.08 38.55,0 64.66,12.61 78.36,37.82 6.13,10.81 10.07,23.88 11.89,39.18 1.79,15.32 2.69,39.55 2.69,72.69l0 18.92c0,37.83 0.55,66.19 1.63,85.12 1.08,18.91 2.34,30.79 3.78,35.65 1.44,4.87 3.96,10.54 7.57,17.03z"/>
   </g>
   <g>
    <g>
     <g>
      <path class="fil2" d="M6350 6915.37c30.67,74.21 74.84,138.44 127.07,194.25 66.67,71.24 146.2,128.28 227.1,174.69 -16.91,6.16 -33.74,10.42 -50.27,13.11 -48.08,7.82 -93.82,2.55 -130.98,-7.79l-41.34 -11.5 -11.11 41.47c-10.68,39.88 -32.61,68.2 -59.19,84.77 -19.09,11.9 -40.5,17.96 -61.71,18.04 -21.38,0.07 -42.73,-5.73 -61.52,-17.52 -26.04,-16.34 -47.62,-44.61 -58.52,-85.29l-11.12 -41.47 -41.33 11.5c-37.16,10.34 -82.9,15.61 -130.98,7.79 -16.53,-2.69 -33.36,-6.95 -50.27,-13.11 80.9,-46.41 160.43,-103.45 227.1,-174.69 52.23,-55.81 96.4,-120.04 127.07,-194.25zm189.01 136.3c-73.89,-78.97 -129.16,-177.17 -145.25,-300.43 -14.02,1.9 -28.33,2.91 -42.87,2.91 -15.14,0 -30.03,-1.09 -44.62,-3.16 -16.04,123.38 -71.33,221.66 -145.28,300.68 -78.14,83.49 -177.58,146.37 -274.44,194.93l-63.61 31.9 58.12 40.87c49.72,34.97 101.56,53.87 151.39,61.97 45.68,7.43 89.53,5.69 128.41,-1.05 19.11,43.17 48.08,75.3 81.91,96.53 32.73,20.54 69.79,30.65 106.8,30.51 37.17,-0.14 74.19,-10.45 106.67,-30.7 34.28,-21.37 63.61,-53.6 82.79,-96.36 38.91,6.76 82.8,8.5 128.52,1.07 49.83,-8.1 101.67,-27 151.39,-61.97l58.11 -40.87 -63.6 -31.9c-96.86,-48.56 -196.3,-111.44 -274.44,-194.93z"/>
     </g>
     <path class="fil2" d="M6350 6235.37c55.94,0 106.6,22.69 143.26,59.35 36.66,36.66 59.35,87.33 59.35,143.27 0,55.94 -22.69,106.6 -59.35,143.26 -36.66,36.66 -87.32,59.35 -143.26,59.35 -55.94,0 -106.61,-22.69 -143.27,-59.35 -36.66,-36.66 -59.35,-87.32 -59.35,-143.26 0,-55.94 22.69,-106.61 59.35,-143.27 36.66,-36.66 87.33,-59.35 143.27,-59.35zm82.98 119.63c-21.23,-21.23 -50.57,-34.37 -82.98,-34.37 -32.41,0 -61.76,13.14 -82.99,34.37 -21.23,21.23 -34.37,50.58 -34.37,82.99 0,32.41 13.14,61.75 34.37,82.98 21.23,21.24 50.58,34.37 82.99,34.37 32.41,0 61.75,-13.13 82.98,-34.37 21.23,-21.23 34.37,-50.57 34.37,-82.98 0,-32.41 -13.14,-61.76 -34.37,-82.99z"/>
    </g>
    <polygon class="fil3" points="3356.81,1823.75 3180.11,1654.32 3382.26,1792.39 3558.96,1961.83 "/>
    <polygon class="fil3" points="3460.78,1699.72 3291.38,1522.99 3487.53,1669.46 3656.93,1846.2 "/>
    <polygon class="fil3" points="3569.89,1580.19 3408.09,1396.47 3597.89,1551.08 3759.69,1734.8 "/>
    <polygon class="fil3" points="3683.93,1465.35 3530.03,1274.98 3713.14,1437.46 3867.05,1627.83 "/>
    <polygon class="fil3" points="3802.72,1355.43 3656.98,1158.74 3833.08,1328.79 3978.83,1525.49 "/>
    <polygon class="fil3" points="3926.04,1250.62 3788.71,1047.96 3957.49,1225.28 4094.82,1427.94 "/>
    <polygon class="fil3" points="4053.67,1151.09 3925,942.83 4086.16,1127.11 4214.82,1335.38 "/>
    <polygon class="fil3" points="4185.37,1057.04 4065.61,843.53 4218.85,1034.44 4338.62,1247.95 "/>
    <polygon class="fil3" points="4320.93,968.62 4210.27,750.25 4355.33,947.45 4465.99,1165.82 "/>
    <polygon class="fil3" points="4460.09,885.99 4358.74,663.16 4495.35,866.3 4596.71,1089.13 "/>
    <polygon class="fil3" points="4602.61,809.31 4510.74,582.39 4638.67,791.11 4730.55,1018.02 "/>
    <polygon class="fil3" points="4748.24,738.7 4666.02,508.11 4785.04,722.04 4867.26,952.62 "/>
    <polygon class="fil3" points="4896.72,674.29 4824.28,440.44 4934.18,659.19 5006.61,893.04 "/>
    <polygon class="fil3" points="5047.78,616.19 4985.26,379.5 5085.84,602.69 5148.35,839.39 "/>
    <polygon class="fil3" points="5201.15,564.52 5148.67,325.41 5239.75,552.64 5292.23,791.75 "/>
    <polygon class="fil3" points="5356.56,519.36 5314.21,278.24 5395.63,509.11 5437.98,750.23 "/>
    <polygon class="fil3" points="5513.74,480.79 5481.59,238.1 5553.21,472.2 5585.36,714.89 "/>
    <polygon class="fil3" points="5672.41,448.88 5650.52,205.05 5712.2,441.96 5734.09,685.79 "/>
    <polygon class="fil3" points="5832.28,423.69 5820.69,179.15 5872.33,418.45 5883.92,662.98 "/>
    <polygon class="fil3" points="5993.07,405.25 5991.8,160.45 6033.3,401.71 6034.58,646.52 "/>
    <polygon class="fil3" points="6154.5,393.62 6163.54,148.98 6194.84,391.78 6185.79,636.41 "/>
    <polygon class="fil3" points="6316.27,388.8 6335.62,144.76 6356.66,388.66 6337.3,632.7 "/>
    <polygon class="fil3" points="6478.1,390.8 6507.72,147.79 6518.46,392.36 6488.83,635.37 "/>
    <polygon class="fil3" points="6639.7,399.62 6679.54,158.08 6679.96,402.88 6640.12,644.43 "/>
    <polygon class="fil3" points="6800.79,415.25 6850.78,175.6 6840.87,420.21 6790.89,659.85 "/>
    <polygon class="fil3" points="6961.07,437.65 7021.12,200.32 7000.91,444.29 6940.87,681.62 "/>
    <polygon class="fil3" points="7120.27,466.79 7190.27,232.21 7159.8,475.11 7089.8,709.69 "/>
    <polygon class="fil3" points="7278.1,502.62 7357.92,271.19 7317.24,512.59 7237.42,744.02 "/>
    <polygon class="fil3" points="7434.28,545.07 7523.79,317.21 7472.96,556.68 7383.45,784.54 "/>
    <polygon class="fil3" points="7588.53,594.06 7687.56,370.18 7626.69,607.29 7527.65,831.18 "/>
    <polygon class="fil3" points="7740.58,649.51 7848.96,430 7778.14,664.34 7669.76,883.85 "/>
    <polygon class="fil3" points="7890.15,711.32 8007.69,496.58 7927.06,727.73 7809.52,942.47 "/>
    <polygon class="fil3" points="8036.99,779.39 8163.48,569.79 8073.17,797.33 7946.68,1006.93 "/>
    <polygon class="fil3" points="8180.82,853.58 8316.03,649.5 8216.22,873.03 8081.01,1077.11 "/>
    <polygon class="fil3" points="8321.4,933.77 8465.1,735.57 8355.95,954.7 8212.25,1152.89 "/>
    <polygon class="fil3" points="8458.48,1019.81 8610.4,827.85 8492.11,1042.18 8340.19,1234.14 "/>
    <polygon class="fil3" points="8591.81,1111.56 8751.68,926.17 8624.46,1135.32 8464.59,1320.71 "/>
    <polygon class="fil3" points="8721.15,1208.84 8888.7,1030.36 8752.77,1233.96 8585.22,1412.45 "/>
    <polygon class="fil3" points="8846.27,1311.49 9021.2,1140.23 8876.81,1337.93 8701.88,1509.19 "/>
    <polygon class="fil3" points="8966.96,1419.33 9148.95,1255.59 8996.36,1447.02 8814.37,1610.76 "/>
    <polygon class="fil3" points="9082.99,1532.16 9271.72,1376.24 9111.19,1561.06 8922.46,1716.98 "/>
    <polygon class="fil3" points="9194.16,1649.77 9389.3,1501.95 9221.12,1679.84 9025.99,1827.67 "/>
    <polygon class="fil3" points="9300.28,1771.97 9501.47,1632.51 9325.95,1803.15 9124.76,1942.62 "/>
    <polygon class="fil3" points="9291.55,6692.57 9464.66,6865.68 9265.45,6723.39 9092.34,6550.29 "/>
    <polygon class="fil3" points="9185.01,6814.4 9350.66,6994.64 9157.62,6844.09 8991.97,6663.84 "/>
    <polygon class="fil3" points="9073.42,6931.62 9231.33,7118.69 9044.81,6960.13 8886.9,6773.06 "/>
    <polygon class="fil3" points="8956.98,7044.03 9106.87,7237.59 8927.2,7071.31 8777.31,6877.75 "/>
    <polygon class="fil3" points="8835.92,7151.44 8977.51,7351.14 8805.01,7177.44 8663.42,6977.73 "/>
    <polygon class="fil3" points="8710.43,7253.65 8843.47,7459.14 8678.45,7278.32 8545.4,7072.82 "/>
    <polygon class="fil3" points="8580.74,7350.47 8705.01,7561.39 8547.76,7373.77 8423.49,7162.85 "/>
    <polygon class="fil3" points="8447.09,7441.74 8562.36,7657.72 8413.15,7463.63 8297.89,7247.66 "/>
    <polygon class="fil3" points="8309.71,7527.3 8415.77,7747.94 8274.88,7547.74 8168.82,7327.1 "/>
    <polygon class="fil3" points="8168.85,7606.99 8265.51,7831.91 8133.18,7625.95 8036.52,7401.03 "/>
    <polygon class="fil3" points="8024.75,7680.67 8111.84,7909.46 7988.32,7698.11 7901.22,7469.32 "/>
    <polygon class="fil3" points="7877.67,7748.22 7955.05,7980.47 7840.54,7764.1 7763.17,7531.84 "/>
    <polygon class="fil3" points="7727.88,7809.5 7795.39,8044.81 7690.11,7823.8 7622.6,7588.49 "/>
    <polygon class="fil3" points="7575.64,7864.41 7633.17,8102.36 7537.3,7877.11 7479.76,7639.16 "/>
    <polygon class="fil3" points="7421.21,7912.85 7468.67,8153.02 7382.37,7923.93 7334.92,7683.76 "/>
    <polygon class="fil3" points="7264.89,7954.75 7302.17,8196.7 7225.61,7964.17 7188.33,7722.22 "/>
    <polygon class="fil3" points="7106.93,7990.01 7133.98,8233.32 7067.3,7997.77 7040.24,7754.47 "/>
    <polygon class="fil3" points="6947.63,8018.59 6964.4,8262.82 6907.7,8024.67 6890.93,7780.44 "/>
    <polygon class="fil3" points="6787.27,8040.42 6793.73,8285.15 6747.12,8044.82 6740.66,7800.1 "/>
    <polygon class="fil3" points="6626.13,8055.48 6622.27,8300.26 6585.83,8058.18 6589.69,7813.4 "/>
    <polygon class="fil3" points="6464.49,8063.73 6450.32,8308.12 6424.12,8064.73 6438.29,7820.33 "/>
    <polygon class="fil3" points="6302.66,8065.16 6278.19,8308.74 6262.27,8064.45 6286.74,7820.87 "/>
    <polygon class="fil3" points="6140.9,8059.76 6106.19,8302.1 6100.58,8057.35 6135.3,7815.02 "/>
    <polygon class="fil3" points="5979.52,8047.55 5934.62,8288.21 5939.34,8043.45 5984.24,7802.79 "/>
    <polygon class="fil3" points="5818.79,8028.55 5763.79,8267.1 5778.82,8022.76 5833.83,7784.21 "/>
    <polygon class="fil3" points="5659.01,8002.79 5594.01,8238.81 5619.32,7995.32 5684.33,7759.3 "/>
    <polygon class="fil3" points="5500.46,7970.32 5425.56,8203.39 5461.12,7961.18 5536.02,7728.11 "/>
    <polygon class="fil3" points="5343.42,7931.19 5258.76,8160.89 5304.5,7920.4 5389.16,7690.7 "/>
    <polygon class="fil3" points="5188.17,7885.48 5093.9,8111.41 5149.74,7873.06 5244,7647.13 "/>
    <polygon class="fil3" points="5034.98,7833.26 4931.27,8055.02 4997.1,7819.23 5100.81,7597.48 "/>
    <polygon class="fil3" points="4884.13,7774.64 4771.16,7991.82 4846.88,7759.02 4959.84,7541.83 "/>
    <polygon class="fil3" points="4735.88,7709.7 4613.86,7921.93 4699.32,7692.53 4821.34,7480.3 "/>
    <polygon class="fil3" points="4590.5,7638.57 4459.65,7845.47 4554.7,7619.87 4685.56,7412.98 "/>
    <polygon class="fil3" points="4448.25,7561.38 4308.79,7762.58 4413.28,7541.19 4552.74,7339.99 "/>
    <polygon class="fil3" points="4309.39,7478.26 4161.57,7673.4 4275.29,7456.61 4423.11,7261.47 "/>
    <polygon class="fil3" points="4174.14,7389.36 4018.23,7578.1 4140.99,7366.3 4296.9,7177.56 "/>
    <polygon class="fil3" points="4042.77,7294.84 3879.04,7476.84 4010.62,7270.4 4174.35,7088.4 "/>
    <polygon class="fil3" points="3915.5,7194.86 3744.24,7369.8 3884.41,7169.09 4055.66,6994.16 "/>
    <polygon class="fil3" points="3792.55,7089.61 3614.08,7257.17 3762.58,7062.55 3941.06,6894.99 "/>
    <polygon class="fil3" points="3674.16,6979.27 3488.77,7139.15 3645.35,6950.97 3830.73,6791.08 "/>
    <polygon class="fil3" points="3560.52,6864.04 3368.56,7015.96 3532.92,6834.54 3724.88,6682.62 "/>
    <polygon class="fil3" points="3451.83,6744.11 3253.64,6887.81 3425.51,6713.48 3623.7,6569.78 "/>
    <g>
     <path class="fil2" d="M6350 685.63c977.96,0 1863.36,396.4 2504.25,1037.3 72.62,72.61 142.08,148.39 208.18,227.07 215.27,-59.01 433.45,-110.29 649.55,-142.45 -130.66,-181.25 -275.58,-351.55 -433.19,-509.16 -749.54,-749.53 -1785.03,-1213.13 -2928.79,-1213.13 -1143.76,0 -2179.25,463.6 -2928.79,1213.13 -157.61,157.62 -302.52,327.92 -433.19,509.16 216.09,32.15 434.28,83.43 649.55,142.45 66.12,-78.67 135.56,-154.46 208.18,-227.07 640.89,-640.9 1526.29,-1037.3 2504.25,-1037.3zm737.79 6014.91c-72.49,0 -131.25,-58.76 -131.25,-131.24l0 -0.19 -1.19 0.01c-1.46,-128.43 75.42,-213.3 177.52,-251.27 42.98,-15.99 90.38,-23.4 137.9,-21.95 47.63,1.45 95.61,11.69 139.62,30.98 112.96,49.5 200.74,156.76 194.2,325.8 -0.53,13.86 -1.72,27.3 -3.51,40.27 -15.3,111.06 -74.85,205.15 -158.77,270.24 -83.04,64.42 -190.19,100.41 -301.76,96.09 -15.41,-0.59 -30.7,-1.92 -45.79,-4 -126.34,-17.41 -237.5,-84.46 -315.05,-178.75 -77.6,-94.34 -121.81,-216.14 -114.21,-343.01 5.12,-85.77 27.83,-165.17 64.46,-234.91 38.06,-72.44 91.08,-134.37 155.01,-182.15 348.58,-260.53 955.76,-72.58 1644.04,140.5 719.83,222.83 1530.6,473.81 2197.7,257.32 287.18,-93.19 550.79,-284.14 723.03,-531.26 155.5,-223.1 236.19,-491.89 191.54,-775.22l-7.75 -49.13 49.71 0c256.11,0 488.99,-104.81 657.84,-273.66 168.85,-168.85 273.66,-401.71 273.66,-657.83 0,-256.12 -104.81,-488.98 -273.66,-657.83 -168.85,-168.85 -401.73,-273.66 -657.84,-273.66l-49.71 0 7.75 -49.13c44.65,-283.33 -36.04,-552.12 -191.54,-775.22 -172.24,-247.12 -435.85,-438.07 -723.03,-531.26 -667.1,-216.49 -1477.87,34.49 -2197.7,257.32 -688.28,213.08 -1295.46,401.03 -1644.04,140.5 -63.93,-47.78 -116.95,-109.71 -155.01,-182.15 -36.63,-69.74 -59.34,-149.14 -64.46,-234.91 -7.6,-126.87 36.61,-248.67 114.21,-343.01 77.55,-94.29 188.71,-161.34 315.05,-178.75 15.09,-2.08 30.38,-3.41 45.79,-4 111.57,-4.32 218.72,31.67 301.76,96.09 83.92,65.09 143.47,159.18 158.77,270.24 1.79,12.97 2.98,26.41 3.51,40.27 6.54,169.04 -81.24,276.3 -194.2,325.8 -44.01,19.29 -91.99,29.53 -139.62,30.98 -47.52,1.45 -94.92,-5.96 -137.9,-21.95 -102.1,-37.97 -178.98,-122.84 -177.52,-251.27l1.19 0.01 0 -0.19c0,-72.48 58.76,-131.24 131.25,-131.24 72.48,0 131.24,58.76 131.24,131.24 0,70.18 -55.07,127.49 -124.36,131.07 19.18,17.68 42.36,31.32 67.83,40.79 32.63,12.13 69.05,17.75 105.94,16.62 36.79,-1.11 73.89,-9.05 107.98,-23.99 83.42,-36.56 148.2,-116.98 143.25,-244.88 -0.41,-10.6 -1.37,-21.27 -2.84,-31.94 -12.09,-87.74 -59.53,-162.37 -126.47,-214.29 -67.81,-52.6 -155.43,-81.98 -246.81,-78.44 -12.21,0.47 -24.72,1.58 -37.47,3.33 -104.26,14.37 -196.29,70.06 -260.77,148.45 -64.44,78.35 -101.17,179.24 -94.89,284.06 4.38,73.35 23.68,141.04 54.8,200.28 32.06,61 76.76,113.2 130.7,153.52 314.05,234.72 901.83,52.77 1568.12,-153.49 152.64,-47.25 309.32,-95.75 467.98,-140.87 -56.93,-66.26 -116.31,-130.34 -178.05,-192.07 -625.46,-625.47 -1489.54,-1012.33 -2443.97,-1012.33 -954.44,0 -1818.52,386.87 -2443.97,1012.33 -61.74,61.73 -121.11,125.83 -178.05,192.07 158.66,45.13 315.33,93.62 467.98,140.87 666.29,206.26 1254.07,388.21 1568.12,153.49 53.94,-40.32 98.64,-92.52 130.7,-153.52 31.12,-59.24 50.42,-126.93 54.8,-200.28 6.28,-104.82 -30.45,-205.71 -94.89,-284.06 -64.48,-78.39 -156.51,-134.08 -260.77,-148.45 -12.75,-1.75 -25.26,-2.86 -37.47,-3.33 -91.38,-3.54 -179.01,25.84 -246.81,78.44 -66.94,51.92 -114.38,126.55 -126.47,214.29 -1.47,10.67 -2.43,21.34 -2.84,31.94 -4.95,127.9 59.83,208.32 143.25,244.88 34.09,14.94 71.19,22.88 107.98,23.99 36.89,1.13 73.31,-4.49 105.94,-16.62 25.46,-9.47 48.65,-23.11 67.82,-40.79 -69.28,-3.58 -124.35,-60.89 -124.35,-131.07 0,-72.48 58.76,-131.24 131.24,-131.24 72.49,0 131.25,58.76 131.25,131.24l0 0.19 1.19 -0.01c1.46,128.43 -75.42,213.3 -177.52,251.27 -42.97,15.99 -90.38,23.4 -137.9,21.95 -47.63,-1.45 -95.61,-11.69 -139.62,-30.98 -112.96,-49.5 -200.74,-156.76 -194.2,-325.8 0.53,-13.86 1.72,-27.3 3.51,-40.27 15.3,-111.06 74.85,-205.15 158.77,-270.24 83.04,-64.42 190.19,-100.41 301.76,-96.09 15.41,0.59 30.7,1.92 45.79,4 126.34,17.41 237.5,84.46 315.05,178.75 77.6,94.34 121.81,216.14 114.21,343.01 -5.12,85.77 -27.83,165.17 -64.46,234.91 -38.06,72.44 -91.08,134.37 -155.01,182.15 -348.58,260.53 -955.76,72.58 -1644.04,-140.5 -719.83,-222.83 -1530.6,-473.81 -2197.7,-257.32 -287.18,93.19 -550.79,284.14 -723.03,531.26 -155.5,223.1 -236.19,491.89 -191.54,775.22l7.75 49.13 -49.71 0c-256.12,0 -488.99,104.81 -657.84,273.66 -168.85,168.85 -273.66,401.71 -273.66,657.83 0,256.12 104.81,488.98 273.66,657.83 168.85,168.85 401.73,273.66 657.84,273.66l49.71 0 -7.75 49.13c-44.65,283.33 36.04,552.12 191.54,775.22 172.24,247.12 435.85,438.07 723.03,531.26 667.1,216.49 1477.87,-34.49 2197.7,-257.32 688.28,-213.08 1295.46,-401.03 1644.04,-140.5 63.93,47.78 116.95,109.71 155.01,182.15 36.63,69.74 59.34,149.14 64.46,234.91 7.6,126.87 -36.61,248.67 -114.21,343.01 -77.55,94.29 -188.71,161.34 -315.05,178.75 -15.09,2.08 -30.38,3.41 -45.79,4 -111.57,4.32 -218.72,-31.67 -301.76,-96.09 -83.92,-65.09 -143.47,-159.18 -158.77,-270.24 -1.79,-12.97 -2.98,-26.41 -3.51,-40.27 -6.54,-169.04 81.24,-276.3 194.2,-325.8 44.01,-19.29 91.99,-29.53 139.62,-30.98 47.52,-1.45 94.93,5.96 137.9,21.95 102.1,37.97 178.98,122.84 177.52,251.27l-1.19 -0.01 0 0.19c0,72.48 -58.76,131.24 -131.25,131.24 -72.48,0 -131.24,-58.76 -131.24,-131.24 0,-70.18 55.07,-127.49 124.35,-131.07 -19.17,-17.68 -42.36,-31.32 -67.82,-40.79 -32.63,-12.13 -69.05,-17.75 -105.94,-16.62 -36.79,1.11 -73.89,9.05 -107.98,23.99 -83.42,36.56 -148.2,116.98 -143.25,244.88 0.41,10.6 1.37,21.27 2.84,31.94 12.09,87.74 59.53,162.37 126.47,214.29 67.8,52.6 155.43,81.98 246.81,78.44 12.21,-0.47 24.72,-1.58 37.47,-3.33 104.26,-14.37 196.29,-70.06 260.77,-148.45 64.44,-78.35 101.17,-179.24 94.89,-284.06 -4.38,-73.35 -23.68,-141.04 -54.8,-200.28 -32.06,-61 -76.76,-113.2 -130.7,-153.52 -314.05,-234.72 -901.83,-52.77 -1568.12,153.49 -152.64,47.25 -309.33,95.75 -467.98,140.87 56.93,66.26 116.31,130.34 178.05,192.07 625.46,625.47 1489.54,1012.33 2443.97,1012.33 954.43,0 1818.52,-386.87 2443.97,-1012.33 61.74,-61.73 121.11,-125.83 178.05,-192.07 -158.66,-45.13 -315.34,-93.62 -467.98,-140.87 -666.29,-206.26 -1254.07,-388.21 -1568.12,-153.49 -53.94,40.32 -98.64,92.52 -130.7,153.52 -31.12,59.24 -50.42,126.93 -54.8,200.28 -6.28,104.82 30.45,205.71 94.89,284.06 64.48,78.39 156.51,134.08 260.77,148.45 12.75,1.75 25.26,2.86 37.47,3.33 91.38,3.54 179.01,-25.84 246.81,-78.44 66.94,-51.92 114.38,-126.55 126.47,-214.29 1.47,-10.67 2.43,-21.34 2.84,-31.94 4.95,-127.9 -59.83,-208.32 -143.25,-244.88 -34.09,-14.94 -71.19,-22.88 -107.98,-23.99 -36.89,-1.13 -73.31,4.49 -105.94,16.62 -25.47,9.47 -48.65,23.11 -67.83,40.79 69.29,3.58 124.36,60.89 124.36,131.07 0,72.48 -58.76,131.24 -131.24,131.24zm-3450.22 -196.18c-215.26,59.01 -433.45,110.29 -649.55,142.45 130.66,181.25 275.58,351.55 433.19,509.16 749.54,749.53 1785.03,1213.13 2928.79,1213.13 1143.76,0 2179.25,-463.6 2928.79,-1213.13 157.61,-157.62 302.52,-327.92 433.19,-509.16 -216.09,-32.16 -434.28,-83.43 -649.55,-142.45 -66.12,78.67 -135.56,154.46 -208.18,227.07 -640.89,640.9 -1526.28,1037.3 -2504.25,1037.3 -977.96,0 -1863.36,-396.4 -2504.25,-1037.3 -72.62,-72.61 -142.08,-148.39 -208.18,-227.07zm-657.03 143.55c-8.96,1.31 -17.92,2.59 -26.88,3.84 8.96,-1.25 17.92,-2.53 26.88,-3.84zm-88.02 11.81c-327.61,39.96 -648.68,31.83 -945.54,-64.51 -304.36,-98.77 -583.88,-301.33 -766.66,-563.57 -158.51,-227.41 -244.59,-499.8 -211.98,-788.88 -260.5,-12.36 -496.13,-123.9 -669.7,-297.47 -184.26,-184.26 -298.64,-438.46 -298.64,-718.11 0,-279.65 114.38,-533.85 298.64,-718.11 173.57,-173.57 409.2,-285.11 669.7,-297.47 -32.61,-289.08 53.47,-561.47 211.98,-788.88 182.78,-262.24 462.3,-464.8 766.66,-563.57 296.87,-96.34 617.93,-104.46 945.54,-64.51 140.12,-198.8 296.91,-385.02 468.41,-556.53 764.97,-764.96 1821.78,-1238.11 2989.07,-1238.11 1167.3,0 2224.1,473.15 2989.07,1238.11 171.51,171.51 328.3,357.72 468.41,556.53 327.61,-39.96 648.68,-31.83 945.54,64.51 304.36,98.77 583.88,301.33 766.66,563.57 158.51,227.41 244.59,499.8 211.98,788.88 260.5,12.36 496.13,123.9 669.7,297.47 184.26,184.26 298.64,438.46 298.64,718.11 0,279.65 -114.38,533.85 -298.64,718.11 -173.57,173.57 -409.2,285.11 -669.7,297.47 32.61,289.08 -53.47,561.47 -211.98,788.88 -182.78,262.24 -462.3,464.8 -766.66,563.57 -296.86,96.34 -617.93,104.46 -945.54,64.51 -140.12,198.8 -296.91,385.02 -468.41,556.53 -764.97,764.96 -1821.77,1238.11 -2989.07,1238.11 -1167.29,0 -2224.1,-473.15 -2989.07,-1238.11 -171.51,-171.51 -328.3,-357.72 -468.41,-556.53zm88.02 -4853.27c-8.96,-1.31 -17.92,-2.59 -26.88,-3.84 8.96,1.24 17.92,2.53 26.88,3.84zm682.49 150.58c-7.54,-2.1 -15.09,-4.17 -22.63,-6.25l22.63 6.25zm6111.66 4698.54c-5.47,-0.71 -10.94,-1.44 -16.41,-2.18 5.47,0.74 10.94,1.47 16.41,2.18zm-28.35 -3.82c-8.96,-1.24 -17.92,-2.53 -26.88,-3.84 8.96,1.31 17.92,2.59 26.88,3.84zm-686.74 -148.17l-22.63 -6.25c7.54,2.1 15.09,4.17 22.63,6.25zm659.86 -4697.13c8.96,-1.31 17.93,-2.59 26.88,-3.84 -8.95,1.25 -17.92,2.53 -26.88,3.84z"/>
     <g>
      <path class="fil2" d="M6350.89 1813.76c55.95,0 106.61,22.69 143.27,59.35 36.66,36.66 59.35,87.32 59.35,143.26 0,55.95 -22.69,106.61 -59.35,143.27 -36.66,36.66 -87.32,59.35 -143.27,59.35 -55.94,0 -106.6,-22.69 -143.26,-59.35 -36.66,-36.66 -59.35,-87.32 -59.35,-143.27 0,-55.94 22.69,-106.6 59.35,-143.26 36.66,-36.66 87.32,-59.35 143.26,-59.35zm82.99 119.63c-21.23,-21.24 -50.57,-34.37 -82.99,-34.37 -32.4,0 -61.75,13.13 -82.98,34.37 -21.23,21.23 -34.37,50.58 -34.37,82.98 0,32.41 13.14,61.76 34.37,82.99 21.23,21.23 50.58,34.37 82.98,34.37 32.42,0 61.76,-13.14 82.99,-34.37 21.23,-21.23 34.37,-50.58 34.37,-82.99 0,-32.4 -13.14,-61.75 -34.37,-82.98z"/>
      <path class="fil2" d="M6350 1538.99c30.67,-74.21 74.84,-138.44 127.07,-194.25 66.67,-71.24 146.2,-128.28 227.1,-174.69 -16.91,-6.16 -33.74,-10.42 -50.27,-13.11 -48.08,-7.82 -93.82,-2.55 -130.98,7.79l-41.34 11.5 -11.11 -41.47c-10.68,-39.88 -32.61,-68.2 -59.19,-84.77 -19.09,-11.9 -40.5,-17.96 -61.71,-18.04 -21.38,-0.07 -42.73,5.73 -61.52,17.52 -26.04,16.34 -47.62,44.61 -58.52,85.29l-11.12 41.47 -41.33 -11.5c-37.16,-10.34 -82.9,-15.61 -130.98,-7.79 -16.53,2.69 -33.36,6.95 -50.27,13.11 80.9,46.41 160.43,103.45 227.1,174.69 52.23,55.81 96.4,120.04 127.07,194.25zm189.01 -136.3c-73.89,78.97 -129.16,177.17 -145.25,300.43 -14.02,-1.9 -28.33,-2.91 -42.87,-2.91 -15.14,0 -30.03,1.09 -44.62,3.16 -16.04,-123.38 -71.33,-221.66 -145.28,-300.68 -78.14,-83.49 -177.58,-146.37 -274.44,-194.93l-63.61 -31.9 58.12 -40.87c49.72,-34.97 101.56,-53.87 151.39,-61.97 45.68,-7.43 89.53,-5.69 128.41,1.05 19.11,-43.17 48.08,-75.3 81.91,-96.53 32.73,-20.54 69.79,-30.65 106.8,-30.51 37.17,0.14 74.19,10.45 106.67,30.7 34.28,21.37 63.61,53.6 82.79,96.36 38.91,-6.76 82.8,-8.5 128.52,-1.07 49.83,8.1 101.67,27 151.39,61.97l58.11 40.87 -63.6 31.9c-96.86,48.56 -196.3,111.44 -274.44,194.93z"/>
     </g>
     <g>
      <path class="fil2" d="M11707.17 4227.18c74.22,30.68 138.44,74.85 194.25,127.07 71.24,66.68 128.28,146.21 174.69,227.1 6.16,-16.9 10.42,-33.74 13.11,-50.26 7.82,-48.08 2.55,-93.82 -7.79,-130.98l-11.5 -41.35 41.47 -11.1c39.88,-10.68 68.2,-32.61 84.77,-59.2 11.9,-19.09 17.96,-40.5 18.04,-61.71 0.07,-21.37 -5.73,-42.72 -17.52,-61.51 -16.34,-26.04 -44.61,-47.63 -85.29,-58.53l-41.47 -11.11 11.5 -41.34c10.34,-37.16 15.61,-82.9 7.79,-130.98 -2.69,-16.52 -6.95,-33.36 -13.11,-50.26 -46.41,80.89 -103.45,160.42 -174.69,227.1 -55.81,52.22 -120.03,96.4 -194.25,127.06zm136.3 189.02c-78.97,-73.9 -177.17,-129.17 -300.43,-145.26 1.9,-14.02 2.91,-28.32 2.91,-42.86 0,-15.15 -1.09,-30.04 -3.15,-44.62 123.37,-16.04 221.65,-71.34 300.67,-145.29 83.49,-78.13 146.37,-177.58 194.93,-274.43l31.9 -63.61 40.87 58.11c34.97,49.72 53.87,101.57 61.97,151.39 7.43,45.68 5.69,89.54 -1.05,128.42 43.17,19.11 75.3,48.08 96.53,81.9 20.54,32.74 30.65,69.79 30.51,106.8 -0.14,37.18 -10.45,74.2 -30.69,106.67 -21.38,34.28 -53.6,63.61 -96.37,82.8 6.76,38.9 8.5,82.79 1.07,128.52 -8.1,49.82 -27,101.67 -61.97,151.39l-40.87 58.11 -31.9 -63.61c-48.56,-96.85 -111.44,-196.3 -194.93,-274.43z"/>
      <path class="fil2" d="M992.83 4227.18c-74.22,30.68 -138.44,74.85 -194.25,127.07 -71.24,66.68 -128.28,146.21 -174.69,227.1 -6.16,-16.9 -10.42,-33.74 -13.11,-50.26 -7.82,-48.08 -2.55,-93.82 7.79,-130.98l11.5 -41.35 -41.47 -11.1c-39.88,-10.68 -68.2,-32.61 -84.77,-59.2 -11.9,-19.09 -17.96,-40.5 -18.04,-61.71 -0.07,-21.37 5.73,-42.72 17.52,-61.51 16.34,-26.04 44.61,-47.63 85.29,-58.53l41.47 -11.11 -11.5 -41.34c-10.34,-37.16 -15.61,-82.9 -7.79,-130.98 2.69,-16.52 6.95,-33.36 13.11,-50.26 46.41,80.89 103.45,160.42 174.69,227.1 55.81,52.22 120.03,96.4 194.25,127.06zm-136.3 189.02c78.97,-73.9 177.17,-129.17 300.43,-145.26 -1.9,-14.02 -2.91,-28.32 -2.91,-42.86 0,-15.15 1.09,-30.04 3.15,-44.62 -123.37,-16.04 -221.65,-71.34 -300.67,-145.29 -83.49,-78.13 -146.37,-177.58 -194.93,-274.43l-31.9 -63.61 -40.87 58.11c-34.97,49.72 -53.87,101.57 -61.97,151.39 -7.43,45.68 -5.69,89.54 1.05,128.42 -43.17,19.11 -75.3,48.08 -96.53,81.9 -20.54,32.74 -30.65,69.79 -30.51,106.8 0.14,37.18 10.45,74.2 30.69,106.67 21.38,34.28 53.6,63.61 96.37,82.8 -6.76,38.9 -8.5,82.79 -1.07,128.52 8.1,49.82 27,101.67 61.97,151.39l40.87 58.11 31.9 -63.61c48.56,-96.85 111.44,-196.3 194.93,-274.43z"/>
     </g>
    </g>
   </g>
   <rect class="fil4" x="1588.74" y="2763.1" width="4053.26" height="2924.04"/>
  </g>
 </g>
</svg>
